<svg width="17" height="16" viewBox="0 0 17 16" fill="none" xmlns="http://www.w3.org/2000/svg">
<path fill-rule="evenodd" clip-rule="evenodd" d="M3.19083 4H10.9688C11.7655 4 12.4135 4.726 12.4135 5.61933V10.3807C12.4135 11.274 11.7655 12 10.9688 12H3.19083C2.39416 12 1.74683 11.274 1.74683 10.3807V5.61933C1.74683 4.726 2.39416 4 3.19083 4ZM13.7465 6.66667C13.7465 6.29867 14.0452 6 14.4132 6C14.7812 6 15.0798 6.29867 15.0798 6.66667V9.33333C15.0798 9.70133 14.7812 10 14.4132 10C14.0452 10 13.7465 9.70133 13.7465 9.33333V6.66667Z" fill="#52597A"/>
</svg>
