<svg width="17" height="16" viewBox="0 0 17 16" fill="none" xmlns="http://www.w3.org/2000/svg">
<path fill-rule="evenodd" clip-rule="evenodd" d="M10.9206 10.6669C10.9546 10.6515 11.0353 10.5495 11.0353 10.3809V5.61887C11.0353 5.44687 10.9513 5.3442 10.9179 5.3322L3.14661 5.33353C3.11927 5.3442 3.03527 5.44687 3.03527 5.61887V10.3809C3.03527 10.5529 3.11927 10.6555 3.15261 10.6675L10.9206 10.6669ZM3.14657 4.0002H10.9239C11.7206 4.0002 12.3686 4.7262 12.3686 5.61887V10.3809C12.3686 11.2735 11.7206 12.0002 10.9239 12.0002H3.14657C2.3499 12.0002 1.7019 11.2735 1.7019 10.3809V5.61887C1.7019 4.7262 2.3499 4.0002 3.14657 4.0002ZM13.7019 6.66667C13.7019 6.29867 14.0006 6 14.3686 6C14.7366 6 15.0352 6.29867 15.0352 6.66667V9.33333C15.0352 9.70133 14.7366 10 14.3686 10C14.0006 10 13.7019 9.70133 13.7019 9.33333V6.66667ZM4.36855 6.00004C4.00055 6.00004 3.70188 6.2987 3.70188 6.6667V9.33337C3.70188 9.70137 4.00055 10 4.36855 10C4.73655 10 5.03521 9.70137 5.03521 9.33337V6.6667C5.03521 6.2987 4.73655 6.00004 4.36855 6.00004ZM6.36854 6.6667C6.36854 6.2987 6.66721 6.00004 7.03521 6.00004C7.40321 6.00004 7.70187 6.2987 7.70187 6.6667V9.33337C7.70187 9.70137 7.40321 10 7.03521 10C6.66721 10 6.36854 9.70137 6.36854 9.33337V6.6667Z" fill="#FAC72E"/>
</svg>
