<svg width="17" height="16" viewBox="0 0 17 16" fill="none" xmlns="http://www.w3.org/2000/svg">
<path fill-rule="evenodd" clip-rule="evenodd" d="M11.0353 10.3809C11.0353 10.5495 10.9546 10.6515 10.9206 10.6669L3.15261 10.6675C3.11927 10.6555 3.03527 10.5529 3.03527 10.3809V5.61887C3.03527 5.44687 3.11927 5.3442 3.14661 5.33353L10.9179 5.3322C10.9513 5.3442 11.0353 5.44687 11.0353 5.61887V10.3809ZM10.9239 4.0002H3.14657C2.3499 4.0002 1.7019 4.7262 1.7019 5.61887V10.3809C1.7019 11.2735 2.3499 12.0002 3.14657 12.0002H10.9239C11.7206 12.0002 12.3686 11.2735 12.3686 10.3809V5.61887C12.3686 4.7262 11.7206 4.0002 10.9239 4.0002ZM14.3686 6C14.0006 6 13.7019 6.29867 13.7019 6.66667V9.33333C13.7019 9.70133 14.0006 10 14.3686 10C14.7366 10 15.0352 9.70133 15.0352 9.33333V6.66667C15.0352 6.29867 14.7366 6 14.3686 6ZM3.70188 6.6667C3.70188 6.2987 4.00055 6.00004 4.36855 6.00004C4.73655 6.00004 5.03521 6.2987 5.03521 6.6667V9.33337C5.03521 9.70137 4.73655 10 4.36855 10C4.00055 10 3.70188 9.70137 3.70188 9.33337V6.6667ZM7.03521 6.00004C6.66721 6.00004 6.36854 6.2987 6.36854 6.6667V9.33337C6.36854 9.70137 6.66721 10 7.03521 10C7.40321 10 7.70187 9.70137 7.70187 9.33337V6.6667C7.70187 6.2987 7.40321 6.00004 7.03521 6.00004ZM9.0352 6.6667C9.0352 6.2987 9.33387 6.00004 9.70187 6.00004C10.0699 6.00004 10.3685 6.2987 10.3685 6.6667V9.33337C10.3685 9.70137 10.0699 10 9.70187 10C9.33387 10 9.0352 9.70137 9.0352 9.33337V6.6667Z" fill="#19BDA4"/>
</svg>
